<?xml version="1.0" encoding="utf-8"?>
<!-- Generator: Adobe Illustrator 25.2.1, SVG Export Plug-In . SVG Version: 6.00 Build 0)  -->
<svg version="1.1" id="Calque_1" xmlns="http://www.w3.org/2000/svg" xmlns:xlink="http://www.w3.org/1999/xlink" x="0px" y="0px"
	 viewBox="0 0 64 64.6" style="enable-background:new 0 0 64 64.6;" xml:space="preserve">
<path d="M54,7c1.7,0,3,1.3,3,3c0,0.6,0.4,1,1,1s1-0.4,1-1c0-1.7,1.3-3,3-3c0.6,0,1-0.4,1-1s-0.4-1-1-1c-1.7,0-3-1.3-3-3
	c0-0.6-0.4-1-1-1s-1,0.4-1,1c0,1.7-1.3,3-3,3c-0.6,0-1,0.4-1,1S53.4,7,54,7z M58,5c0.3,0.4,0.6,0.7,1,1c-0.4,0.3-0.7,0.6-1,1
	c-0.3-0.4-0.6-0.7-1-1C57.4,5.7,57.7,5.4,58,5z"/>
<path d="M2,7c1.7,0,3,1.3,3,3c0,0.6,0.4,1,1,1s1-0.4,1-1c0-1.7,1.3-3,3-3c0.6,0,1-0.4,1-1s-0.4-1-1-1C8.3,5,7,3.7,7,2
	c0-0.6-0.4-1-1-1S5,1.4,5,2c0,1.7-1.3,3-3,3C1.4,5,1,5.4,1,6S1.4,7,2,7z M6,5c0.3,0.4,0.6,0.7,1,1C6.6,6.3,6.3,6.6,6,7
	C5.7,6.6,5.4,6.3,5,6C5.4,5.7,5.7,5.4,6,5z"/>
<path d="M10,57c-1.7,0-3-1.3-3-3c0-0.6-0.4-1-1-1s-1,0.4-1,1c0,1.7-1.3,3-3,3c-0.6,0-1,0.4-1,1s0.4,1,1,1c1.7,0,3,1.3,3,3
	c0,0.6,0.4,1,1,1s1-0.4,1-1c0-1.7,1.3-3,3-3c0.6,0,1-0.4,1-1S10.6,57,10,57z M6,59c-0.3-0.4-0.6-0.7-1-1c0.4-0.3,0.7-0.6,1-1
	c0.3,0.4,0.6,0.7,1,1C6.6,58.3,6.3,58.6,6,59z"/>
<path d="M62,57c-1.7,0-3-1.3-3-3c0-0.6-0.4-1-1-1s-1,0.4-1,1c0,1.7-1.3,3-3,3c-0.6,0-1,0.4-1,1s0.4,1,1,1c1.7,0,3,1.3,3,3
	c0,0.6,0.4,1,1,1s1-0.4,1-1c0-1.7,1.3-3,3-3c0.6,0,1-0.4,1-1S62.6,57,62,57z M58,59c-0.3-0.4-0.6-0.7-1-1c0.4-0.3,0.7-0.6,1-1
	c0.3,0.4,0.6,0.7,1,1C58.6,58.3,58.3,58.6,58,59z"/>
<path d="M47.9,34.1C43.2,34.7,37.7,35,32,35c-18.8,0-29-3.3-29-5c0-0.7,2.3-2.7,12.9-4.1c0.5-0.1,0.9-0.6,0.9-1.1
	c-0.1-0.5-0.6-0.9-1.1-0.9C1,25.9,1,29,1,30c0,4,10.4,5.8,20.2,6.6l4.1,4.1c0.2,0.2,0.4,0.3,0.7,0.3h2c0.6,0,1-0.4,1-1s-0.4-1-1-1
	h-1.6l-2.2-2.2c2.8,0.2,13.1,0.1,15.6,0L37.6,39H32c-0.6,0-1,0.4-1,1s0.4,1,1,1h6c0.3,0,0.5-0.1,0.7-0.3c0,0,4-4.1,4.1-4.1
	c1.9-0.1,3.7-0.3,5.4-0.5c0.5-0.1,0.9-0.6,0.9-1.1S48.5,34,47.9,34.1z"/>
<path d="M48.4,24c-0.5-0.1-1,0.3-1.1,0.9c-0.1,0.5,0.3,1,0.9,1.1C58.6,27.3,61,29.4,61,30c0,0.5-1.7,2.2-9.2,3.5
	c-0.5,0.1-0.9,0.6-0.8,1.2c0.1,0.5,0.5,0.8,1,0.8c0.1,0,0.1,0,0.2,0C63,33.5,63,30.9,63,30C63,27.2,58.1,25.2,48.4,24z"/>
<path d="M32,30c6.5,0.1,13-1.8,13-6c0-7.2-5.8-13-13-13s-13,5.8-13,13C19,25.4,20.4,29.7,32,30z M32,13c6.1,0,11,4.9,11,11
	c0,2.2-4.8,4-11,4s-11-1.7-11-4C21,17.9,25.9,13,32,13z"/>
<path d="M30,17.3c0.1,0,1.4-0.3,2-0.3c0.6,0,1-0.4,1-1s-0.4-1-1-1c-0.8,0-1.6,0.1-2.3,0.4c-0.5,0.2-0.8,0.7-0.6,1.3
	C29.2,17,29.6,17.3,30,17.3z"/>
<path d="M24,25c0.6,0,1-0.4,1-1c0-2,0.8-3.9,2.4-5.3c0.4-0.4,0.5-1,0.1-1.4s-1-0.5-1.4-0.1c-2,1.7-3,4.1-3,6.8
	C23,24.6,23.4,25,24,25z"/>
<path d="M32,45c-0.6,0-1,0.4-1,1v6c0,0.6,0.4,1,1,1c0.6,0,1-0.4,1-1v-6C33,45.4,32.6,45,32,45z"/>
<path d="M36,43c-0.6,0-1,0.4-1,1v6c0,0.6,0.4,1,1,1s1-0.4,1-1v-6C37,43.4,36.6,43,36,43z"/>
<path d="M28,43c-0.6,0-1,0.4-1,1v6c0,0.6,0.4,1,1,1s1-0.4,1-1v-6C29,43.4,28.6,43,28,43z"/>
<circle cx="54" cy="30" r="1"/>
<circle cx="44" cy="32" r="1"/>
<circle cx="32" cy="33" r="1"/>
<circle cx="20" cy="32" r="1"/>
<circle cx="10" cy="30" r="1"/>
</svg>
